<svg width="27" height="27" viewBox="0 0 27 27" fill="none" xmlns="http://www.w3.org/2000/svg">
<path d="M13.5 8.99994C12.703 8.99876 11.9312 9.27969 11.3215 9.79298C10.7117 10.3063 10.3033 11.0188 10.1686 11.8044C10.0338 12.5899 10.1814 13.3978 10.5853 14.085C10.9891 14.7721 11.6231 15.2942 12.375 15.5587C12.3696 15.6223 12.3696 15.6863 12.375 15.7499V22.4999C12.375 22.7983 12.4935 23.0845 12.7045 23.2954C12.9155 23.5064 13.2016 23.6249 13.5 23.6249C13.7984 23.6249 14.0845 23.5064 14.2955 23.2954C14.5065 23.0845 14.625 22.7983 14.625 22.4999V15.7499C14.6304 15.6863 14.6304 15.6223 14.625 15.5587C15.3769 15.2942 16.0109 14.7721 16.4147 14.085C16.8186 13.3978 16.9662 12.5899 16.8314 11.8044C16.6967 11.0188 16.2883 10.3063 15.6785 9.79298C15.0688 9.27969 14.297 8.99876 13.5 8.99994ZM3.9375 12.3749C3.96823 11.2359 4.25042 10.1178 4.76388 9.10061C5.27733 8.08342 6.00935 7.19235 6.9075 6.49119C7.13724 6.30024 7.28172 6.02584 7.30915 5.72836C7.33658 5.43088 7.24471 5.13469 7.05375 4.90494C6.9592 4.79119 6.84317 4.69717 6.71228 4.62825C6.58139 4.55934 6.43821 4.51688 6.29091 4.5033C5.99343 4.47587 5.69724 4.56774 5.4675 4.75869C4.31363 5.66985 3.37613 6.82551 2.72251 8.14248C2.06889 9.45945 1.7154 10.905 1.6875 12.3749C1.7154 13.8449 2.06889 15.2904 2.72251 16.6074C3.37613 17.9244 4.31363 19.08 5.4675 19.9912C5.58126 20.0857 5.71252 20.157 5.85381 20.2008C5.99509 20.2446 6.14362 20.2602 6.29091 20.2466C6.43821 20.233 6.58139 20.1906 6.71228 20.1216C6.84317 20.0527 6.9592 19.9587 7.05375 19.8449C7.1483 19.7312 7.21952 19.5999 7.26334 19.4586C7.30716 19.3174 7.32273 19.1688 7.30915 19.0215C7.29557 18.8742 7.25311 18.7311 7.18419 18.6002C7.11528 18.4693 7.02126 18.3532 6.9075 18.2587C6.00935 17.5575 5.27733 16.6665 4.76388 15.6493C4.25042 14.6321 3.96823 13.514 3.9375 12.3749Z" fill="white"/>
<path d="M18.72 7.01962C18.4899 6.86669 18.2115 6.8038 17.9379 6.84296C17.6644 6.88212 17.4148 7.02059 17.2368 7.23196C17.0588 7.44332 16.9649 7.71281 16.9728 7.98902C16.9808 8.26524 17.0901 8.52886 17.28 8.72962C17.8359 9.16477 18.2894 9.71685 18.6082 10.3467C18.9271 10.9766 19.1035 11.669 19.125 12.3746C19.1035 13.0803 18.9271 13.7726 18.6082 14.4025C18.2894 15.0324 17.8359 15.5845 17.28 16.0196C17.1059 16.1685 16.9814 16.3669 16.9231 16.5884C16.8649 16.8099 16.8756 17.0439 16.9538 17.2591C17.0321 17.4744 17.1742 17.6606 17.3612 17.7929C17.5481 17.9253 17.771 17.9974 18 17.9996C18.2643 17.997 18.5192 17.9014 18.72 17.7296C19.5317 17.0895 20.191 16.2771 20.6502 15.3509C21.1093 14.4248 21.3569 13.4082 21.375 12.3746C21.3569 11.3411 21.1093 10.3245 20.6502 9.39832C20.191 8.47219 19.5317 7.6597 18.72 7.01962ZM9.855 7.15462C9.66297 6.92953 9.39 6.78915 9.09521 6.76388C8.80041 6.73861 8.50753 6.83049 8.28 7.01962C7.4683 7.6597 6.80901 8.47219 6.34984 9.39832C5.89066 10.3245 5.64308 11.3411 5.625 12.3746C5.64308 13.4082 5.89066 14.4248 6.34984 15.3509C6.80901 16.2771 7.4683 17.0895 8.28 17.7296C8.50753 17.9188 8.80041 18.0106 9.09521 17.9854C9.39 17.9601 9.66297 17.8197 9.855 17.5946C10.0441 17.3671 10.136 17.0742 10.1107 16.7794C10.0855 16.4846 9.94509 16.2116 9.72 16.0196C9.16405 15.5845 8.7106 15.0324 8.39176 14.4025C8.07292 13.7726 7.8965 13.0803 7.875 12.3746C7.8965 11.669 8.07292 10.9766 8.39176 10.3467C8.7106 9.71685 9.16405 9.16477 9.72 8.72962C9.94509 8.5376 10.0855 8.26462 10.1107 7.96983C10.136 7.67504 10.0441 7.38216 9.855 7.15462Z" fill="white"/>
<path d="M21.5326 4.75869C21.4188 4.66414 21.2875 4.59292 21.1463 4.5491C21.005 4.50528 20.8564 4.48971 20.7092 4.50329C20.5619 4.51687 20.4187 4.55933 20.2878 4.62825C20.1569 4.69716 20.0409 4.79118 19.9463 4.90494C19.8518 5.0187 19.7805 5.14997 19.7367 5.29125C19.6929 5.43253 19.6773 5.58106 19.6909 5.72835C19.7045 5.87565 19.747 6.01883 19.8159 6.14972C19.8848 6.28061 19.9788 6.39664 20.0926 6.49119C20.9907 7.19235 21.7227 8.08342 22.2362 9.10061C22.7496 10.1178 23.0318 11.2359 23.0626 12.3749C23.0318 13.514 22.7496 14.6321 22.2362 15.6493C21.7227 16.6665 20.9907 17.5575 20.0926 18.2587C19.8628 18.4496 19.7183 18.724 19.6909 19.0215C19.6635 19.319 19.7554 19.6152 19.9463 19.8449C20.1373 20.0747 20.4117 20.2192 20.7092 20.2466C21.0066 20.274 21.3028 20.1821 21.5326 19.9912C22.6864 19.08 23.6239 17.9244 24.2776 16.6074C24.9312 15.2904 25.2847 13.8449 25.3126 12.3749C25.2847 10.905 24.9312 9.45945 24.2776 8.14248C23.6239 6.82551 22.6864 5.66985 21.5326 4.75869Z" fill="white"/>
</svg>
