<svg width="20" height="22" viewBox="0 0 20 22" fill="none" xmlns="http://www.w3.org/2000/svg">
<path d="M18 2H17V0H15V2H5V0H3V2H2C0.9 2 0 2.9 0 4V20C0 21.1 0.9 22 2 22H18C19.1 22 20 21.1 20 20V4C20 2.9 19.1 2 18 2ZM18 20H2V7H18V20Z" fill="white"/>
<rect x="3" y="8" width="14" height="11" fill="white"/>
<path d="M9.57225 15.803H12.5153V17H7.68225V15.803H8.33925V14.534H7.79025V13.445H8.33925V12.545C8.33925 11.909 8.53425 11.423 8.92425 11.087C9.32025 10.745 9.78525 10.574 10.3193 10.574C10.7753 10.574 11.1713 10.691 11.5073 10.925C11.8493 11.153 12.1043 11.474 12.2723 11.888L11.2013 12.5C11.0453 12.02 10.7603 11.78 10.3463 11.78C10.1243 11.78 9.93825 11.849 9.78825 11.987C9.64425 12.125 9.57225 12.326 9.57225 12.59V13.445H11.3993V14.534H9.57225V15.803Z" fill="#0D55AA"/>
</svg>
