<svg width="11" height="20" viewBox="0 0 11 20" fill="none" xmlns="http://www.w3.org/2000/svg">
<path d="M10.751 9.8209C10.7128 9.42798 10.554 9.05647 10.2965 8.75728L3.41285 0.725912C3.25314 0.524075 3.05434 0.356541 2.82836 0.233347C2.60238 0.110153 2.35385 0.0338364 2.09767 0.00895882C1.8415 -0.0159187 1.58293 0.0111542 1.33747 0.0885639C1.09201 0.165974 0.864731 0.292126 0.669176 0.459463C0.473621 0.626801 0.313853 0.831884 0.19943 1.06243C0.0850063 1.29297 0.0182826 1.54424 0.00326201 1.80118C-0.0117586 2.05812 0.0251991 2.31545 0.11198 2.55776C0.19876 2.80006 0.333531 3.02237 0.508256 3.21135L6.32837 10L0.508256 16.7887C0.333531 16.9776 0.19876 17.1999 0.11198 17.4422C0.0251991 17.6846 -0.0117586 17.9419 0.00326201 18.1988C0.0182826 18.4558 0.0850063 18.707 0.19943 18.9376C0.313853 19.1681 0.473621 19.3732 0.669176 19.5405C0.864731 19.7079 1.09201 19.834 1.33747 19.9114C1.58293 19.9888 1.8415 20.0159 2.09767 19.991C2.35385 19.9662 2.60238 19.8898 2.82836 19.7667C3.05434 19.6435 3.25314 19.4759 3.41285 19.2741L10.2965 11.2427C10.4637 11.0483 10.5901 10.8223 10.6682 10.578C10.7463 10.3337 10.7745 10.0763 10.751 9.8209Z" fill="#0D55AA"/>
</svg>
