<svg width="10" height="17" viewBox="0 0 10 17" fill="none" xmlns="http://www.w3.org/2000/svg">
<path d="M0.00716877 8.65223C0.0396137 8.98622 0.174583 9.302 0.393496 9.55631L6.24459 16.383C6.38034 16.5545 6.54932 16.6969 6.7414 16.8017C6.93349 16.9064 7.14474 16.9712 7.36248 16.9924C7.58023 17.0135 7.80002 16.9905 8.00866 16.9247C8.2173 16.8589 8.41049 16.7517 8.57671 16.6095C8.74293 16.4672 8.87873 16.2929 8.97599 16.0969C9.07325 15.901 9.12997 15.6874 9.14274 15.469C9.1555 15.2506 9.12409 15.0319 9.05033 14.8259C8.97656 14.6199 8.86201 14.431 8.71349 14.2704L3.7664 8.5L8.71349 2.72965C8.86201 2.56901 8.97656 2.38005 9.05033 2.17409C9.12409 1.96813 9.1555 1.7494 9.14274 1.531C9.12997 1.3126 9.07325 1.09903 8.97599 0.903066C8.87873 0.707103 8.74293 0.532783 8.57671 0.390546C8.41049 0.24831 8.2173 0.14108 8.00866 0.0752812C7.80002 0.00948259 7.58023 -0.013533 7.36248 0.00761317C7.14474 0.0287594 6.93349 0.0936326 6.7414 0.198347C6.54932 0.303061 6.38034 0.445464 6.24459 0.617026L0.393496 7.44369C0.251339 7.60893 0.143881 7.80108 0.0775194 8.0087C0.011158 8.21633 -0.0127983 8.43518 0.00716877 8.65223Z" fill="#0D55AA"/>
</svg>
