<svg width="22" height="22" viewBox="0 0 22 22" fill="none" xmlns="http://www.w3.org/2000/svg">
<path fill-rule="evenodd" clip-rule="evenodd" d="M20.2874 16.7329L14.0999 10.5454L20.2874 4.35782C20.5286 4.12717 20.7213 3.85068 20.8541 3.54458C20.987 3.23847 21.0573 2.90891 21.0611 2.57524C21.0649 2.24157 21.002 1.91051 20.8761 1.60148C20.7501 1.29245 20.5638 1.01168 20.3279 0.775648C20.092 0.539614 19.8114 0.353069 19.5024 0.226961C19.1935 0.100853 18.8625 0.0377217 18.5288 0.041271C18.1951 0.0448203 17.8655 0.114979 17.5593 0.24763C17.2531 0.380282 16.9765 0.572754 16.7457 0.813752L10.5558 7.01295L4.29132 0.736758C3.82011 0.265239 3.18089 0.000218904 2.51428 1.35549e-07C1.84767 -0.000218633 1.20828 0.264381 0.736758 0.735591C0.265239 1.2068 0.000218918 1.84602 1.35566e-07 2.51263C-0.000218647 3.17924 0.264381 3.81864 0.735591 4.29016L7.01178 10.557L0.810252 16.7492C0.340589 17.2189 0.0767355 17.8559 0.0767355 18.5201C0.0767355 19.1843 0.340589 19.8213 0.810252 20.2909C1.27992 20.7606 1.91691 21.0245 2.58112 21.0245C3.24532 21.0245 3.88232 20.7606 4.35198 20.2909L10.5442 14.0987L16.7317 20.2886C17.2073 20.7399 17.8403 20.9877 18.496 20.9791C19.1516 20.9705 19.7779 20.7063 20.2415 20.2427C20.7051 19.7791 20.9694 19.1527 20.978 18.4971C20.9865 17.8415 20.7388 17.2085 20.2874 16.7329Z" fill="white"/>
</svg>
