<?xml version="1.0" encoding="UTF-8" standalone="no"?>
<svg
   xmlns="http://www.w3.org/2000/svg"
   width="18"
   height="12"
   viewBox="0 0 18 12"
   fill="none"
   >
  <path
     d="M3.11432 5.60022L3.49994 5.55489L3.55152 5.17006C3.71716 3.93412 4.77667 2.9804 6.05781 2.9804C6.60458 2.9804 7.10831 3.1568 7.52456 3.45485L8.06391 3.84104L8.28663 3.21619C8.78543 1.81679 10.116 0.816895 11.6829 0.816895C13.677 0.816895 15.2936 2.43344 15.2936 4.42755C15.2936 4.61299 15.2791 4.79545 15.2519 4.97447L15.1979 5.33007L15.5179 5.49436C16.543 6.0207 17.2407 7.08573 17.2407 8.32185C17.2407 10.0833 15.8242 11.4998 14.0628 11.4998H3.4616C1.82597 11.4998 0.5 10.1739 0.5 8.5382C0.5 7.02231 1.64276 5.77322 3.11432 5.60022Z"
     stroke="#929292"
     id="path10" />
</svg>
