<svg width="22" height="22" viewBox="0 0 22 22" fill="currentColor" xmlns="http://www.w3.org/2000/svg">
<path fill-rule="evenodd" clip-rule="evenodd" d="M17.1111 2.44444H19.5556C20.9 2.44444 22 3.54444 22 4.88889V6.11111C22 9.22778 19.6533 11.77 16.6344 12.1489C15.8644 13.9822 14.2144 15.3633 12.2222 15.7667V19.5556H17.1111V22H4.88889V19.5556H9.77778V15.7667C7.78556 15.3633 6.13556 13.9822 5.36556 12.1489C2.34667 11.77 0 9.22778 0 6.11111V4.88889C0 3.54444 1.1 2.44444 2.44444 2.44444H4.88889V0H17.1111V2.44444ZM2.44444 4.88889V6.11111C2.44444 7.7 3.47111 9.04444 4.88889 9.55778V4.88889H2.44444ZM17.1111 9.55778C18.5289 9.04444 19.5556 7.7 19.5556 6.11111V4.88889H17.1111V9.55778ZM13.5153 8.803H10.5723V7.534H12.3993V6.445H10.5723V5.59C10.5723 5.326 10.6443 5.125 10.7883 4.987C10.9383 4.849 11.1243 4.78 11.3463 4.78C11.7603 4.78 12.0453 5.02 12.2013 5.5L13.2723 4.888C13.1043 4.474 12.8493 4.153 12.5073 3.925C12.1713 3.691 11.7753 3.574 11.3193 3.574C10.7853 3.574 10.3203 3.745 9.92425 4.087C9.53425 4.423 9.33925 4.909 9.33925 5.545V6.445H8.79025V7.534H9.33925V8.803H8.68225V10H13.5153V8.803Z" fill="white"/>
</svg>
