<svg width="29" height="30" viewBox="0 0 29 30" fill="none" xmlns="http://www.w3.org/2000/svg">
<path d="M6.78977 15.003C7.34765 15.003 7.90553 14.817 8.40142 14.4761L13.9182 10.447C15.127 9.54817 15.4059 7.84354 14.5071 6.6348L10.478 1.118C9.54817 -0.0907387 7.84354 -0.369678 6.6348 0.529127L1.118 4.55825C-0.0907387 5.45706 -0.369678 7.16169 0.529127 8.40142L4.55825 13.9182C5.11613 14.6311 5.95295 15.003 6.78977 15.003ZM1.73786 5.39507L7.25467 1.36595C7.5646 1.14899 7.90553 1.02502 8.24645 1.02502C8.77334 1.02502 9.30022 1.27297 9.61016 1.70687L13.6393 7.22367C14.1972 7.96751 14.0422 9.05228 13.2674 9.61016L7.75056 13.6393C7.00672 14.1972 5.92196 14.0422 5.36408 13.2674L1.33495 7.75056C0.808066 7.03771 0.994026 5.95295 1.73786 5.39507Z" fill="white"/>
<path d="M26.9971 7.16158L20.4265 5.33298C18.9698 4.93007 17.4512 5.76689 17.0483 7.22357L15.2196 13.7941C15.0337 14.507 15.1267 15.2508 15.4676 15.8707C15.8395 16.5216 16.3974 16.9555 17.1102 17.1724L23.6808 19.001C23.9288 19.063 24.1767 19.094 24.4247 19.094C25.6334 19.094 26.7182 18.2882 27.0591 17.0794L28.8877 10.5089C29.3216 9.08317 28.4538 7.5645 26.9971 7.16158ZM27.8959 10.2299L26.0673 16.8005C25.8194 17.6993 24.8896 18.2262 23.9907 17.9782L17.4202 16.1496C16.9863 16.0257 16.6143 15.7467 16.3974 15.3438C16.1804 14.9409 16.1185 14.476 16.2424 14.0421L18.071 7.47152C18.288 6.72768 18.9698 6.23178 19.7137 6.23178C19.8686 6.23178 20.0236 6.26278 20.1786 6.29377L26.7491 8.12237C27.617 8.40131 28.1438 9.33111 27.8959 10.2299Z" fill="white"/>
<path d="M14.1661 16.6145C13.5462 15.2198 11.9346 14.5999 10.5709 15.2198L4.31022 17.9472C3.62836 18.2261 3.13247 18.784 2.85353 19.4659C2.57459 20.1477 2.60559 20.8915 2.88453 21.5734L5.61193 27.834C5.89087 28.5159 6.44875 29.0118 7.1306 29.2907C7.44054 29.4147 7.78146 29.4767 8.12239 29.4767C8.49431 29.4767 8.86623 29.4147 9.20715 29.2597L15.4678 26.5323C16.8625 25.9125 17.4824 24.3008 16.8625 22.9371L14.1661 16.6145ZM15.0649 25.5405L8.80424 28.2679C8.40133 28.4539 7.93643 28.4539 7.50252 28.2989C7.06862 28.144 6.75868 27.803 6.57272 27.4001L3.84532 21.1395C3.65936 20.7366 3.65936 20.2717 3.81432 19.8378C3.96929 19.4039 4.31022 19.0939 4.71313 18.908L10.9738 16.1806C11.8416 15.8086 12.8334 16.2116 13.2053 17.0484L15.9327 23.309C16.3046 24.1458 15.9327 25.1686 15.0649 25.5405Z" fill="white"/>
<path d="M8.64337 4.79396C9.08502 4.46997 9.1804 3.84929 8.8564 3.40764C8.53241 2.966 7.91174 2.87062 7.47009 3.19461C7.02844 3.5186 6.93306 4.13928 7.25705 4.58093C7.58104 5.02257 8.20172 5.11795 8.64337 4.79396Z" fill="white"/>
<path d="M8.08819 8.30861C8.52984 7.98462 8.62522 7.36394 8.30123 6.92229C7.97723 6.48064 7.35656 6.38527 6.91491 6.70926C6.47326 7.03325 6.37788 7.65393 6.70188 8.09557C7.02587 8.53722 7.64654 8.6326 8.08819 8.30861Z" fill="white"/>
<path d="M7.55841 11.8042C8.00006 11.4802 8.09543 10.8595 7.77144 10.4179C7.44745 9.97625 6.82677 9.88087 6.38513 10.2049C5.94348 10.5289 5.8481 11.1495 6.17209 11.5912C6.49608 12.0328 7.11676 12.1282 7.55841 11.8042Z" fill="white"/>
<path d="M19.9489 14.1834C20.0958 13.6557 19.7872 13.1089 19.2595 12.962C18.7318 12.8151 18.1849 13.1237 18.038 13.6514C17.8911 14.1791 18.1998 14.726 18.7275 14.8729C19.2552 15.0198 19.802 14.7111 19.9489 14.1834Z" fill="white"/>
<path d="M21.2927 9.33432C21.4396 8.80662 21.1309 8.25974 20.6032 8.11284C20.0755 7.96593 19.5286 8.27463 19.3817 8.80233C19.2348 9.33003 19.5435 9.8769 20.0712 10.0238C20.5989 10.1707 21.1458 9.86202 21.2927 9.33432Z" fill="white"/>
<path d="M23.0158 12.4232C23.1627 11.8955 22.854 11.3486 22.3263 11.2017C21.7986 11.0548 21.2518 11.3635 21.1049 11.8912C20.958 12.4189 21.2667 12.9658 21.7944 13.1127C22.3221 13.2596 22.8689 12.9509 23.0158 12.4232Z" fill="white"/>
<path d="M24.7683 15.5189C24.9152 14.9912 24.6065 14.4443 24.0788 14.2974C23.5511 14.1505 23.0042 14.4592 22.8573 14.9869C22.7104 15.5146 23.0191 16.0615 23.5468 16.2084C24.0745 16.3553 24.6214 16.0466 24.7683 15.5189Z" fill="white"/>
<path d="M26.1135 10.6712C26.2604 10.1435 25.9517 9.59666 25.424 9.44975C24.8963 9.30285 24.3494 9.61154 24.2025 10.1392C24.0556 10.6669 24.3643 11.2138 24.892 11.3607C25.4197 11.5076 25.9666 11.1989 26.1135 10.6712Z" fill="white"/>
<path d="M8.98396 26.4257C9.48581 26.2062 9.71466 25.6214 9.49513 25.1195C9.27559 24.6177 8.69079 24.3888 8.18895 24.6084C7.6871 24.8279 7.45824 25.4127 7.67778 25.9145C7.89732 26.4164 8.48211 26.6452 8.98396 26.4257Z" fill="white"/>
<path d="M7.00017 21.8263C7.50196 21.6067 7.73073 21.0219 7.51114 20.5201C7.29155 20.0183 6.70675 19.7895 6.20496 20.0091C5.70317 20.2287 5.4744 20.8135 5.69399 21.3153C5.91358 21.8171 6.49838 22.0459 7.00017 21.8263Z" fill="white"/>
<path d="M13.5978 24.3985C14.0996 24.179 14.3284 23.5942 14.1088 23.0924C13.8892 22.5906 13.3044 22.3618 12.8026 22.5814C12.3008 22.801 12.0721 23.3858 12.2917 23.8876C12.5112 24.3894 13.096 24.6181 13.5978 24.3985Z" fill="white"/>
<path d="M11.5851 19.8141C12.0869 19.5945 12.3157 19.0097 12.0961 18.5079C11.8765 18.0061 11.2917 17.7773 10.7899 17.9969C10.2881 18.2165 10.0594 18.8013 10.279 19.3031C10.4985 19.8049 11.0833 20.0337 11.5851 19.8141Z" fill="white"/>
</svg>
