<svg width="12" height="12" viewBox="0 0 12 12" fill="none" xmlns="http://www.w3.org/2000/svg">
<path d="M11.2488 0C10.8346 0 10.4977 0.336918 10.4977 0.751181V1.05924H1.50234V0.751181C1.50234 0.336918 1.16536 0 0.751172 0C0.336987 0 0 0.336918 0 0.751181V11.85C0 11.9329 0.0671631 12 0.15 12H1.35234C1.43518 12 1.50234 11.9329 1.50234 11.85V8.57515H10.4977V11.85C10.4977 11.9329 10.5648 12 10.6477 12H11.85C11.9328 12 12 11.9329 12 11.85V0.751181C12 0.336918 11.663 0 11.2488 0ZM7.2947 7.37192V8.27515H4.66018V7.37192H7.2947ZM1.50234 7.07191V5.56882H10.4977V7.07191H1.50234ZM4.66018 2.26248V1.35925H7.2947V2.26248H4.66018ZM10.4977 2.56248V4.06558H1.50234V2.56248H10.4977ZM1.50234 4.36558H4.36018V5.26881H1.50234V4.36558ZM4.66018 4.36558H7.2947V5.26881H4.66018V4.36558ZM7.5947 4.36558H10.4977V5.26881H7.5947V4.36558ZM10.4977 2.26248H7.5947V1.35925H10.4977V2.26248ZM4.36018 1.35925V2.26248H1.50234V1.35925H4.36018ZM1.20234 11.7H0.3V0.751181C0.3 0.502447 0.502368 0.300004 0.751172 0.300004C0.999976 0.300004 1.20234 0.502447 1.20234 0.751181V11.7ZM1.50234 7.37192H4.36018V8.27515H1.50234V7.37192ZM7.5947 8.27515V7.37192H10.4977V8.27515H7.5947ZM11.7 11.7H10.7977V0.751181C10.7977 0.502447 11 0.300004 11.2488 0.300004C11.4976 0.300004 11.7 0.502447 11.7 0.751181V11.7Z" fill="#929292"/>
</svg>
