<svg width="24" height="20" viewBox="0 0 24 20" fill="none" xmlns="http://www.w3.org/2000/svg">
<path fill-rule="evenodd" clip-rule="evenodd" d="M10.6249 19.6809C11.0554 17.3295 10.9031 13.7504 10.0237 13.4461C8.27612 14.3219 6.71811 14.678 5.16729 14.8714C4.08889 15.9966 3.19406 16.4496 2.51824 16.2703C1.89606 16.0296 0.768397 14.9317 1.17768 13.5921C1.3788 12.6167 2.2987 11.7449 3.49316 10.6129C4.1845 9.95765 4.96782 9.21527 5.75699 8.31519C6.01771 7.71725 7.14954 6.60397 7.98233 6.09119C8.10093 5.36309 8.23658 4.70229 8.43043 4.1024C8.59262 3.60053 8.79554 3.14128 9.06329 2.72094C9.13281 3.03952 9.20323 3.31159 9.28671 3.54532C9.35298 3.73089 9.42749 3.89229 9.51631 4.03362C9.63412 4.22107 9.77713 4.37321 9.95952 4.49957C10.1192 4.15481 10.2563 3.82881 10.3724 3.51653C10.3962 3.45267 10.419 3.38939 10.441 3.32664C10.6306 2.78591 10.7562 2.28455 10.8264 1.79492C11.0629 2.2632 11.2992 2.73106 11.5017 3.30477C11.6833 3.81937 11.8378 4.41913 11.9407 5.18075C16.2088 5.85437 17.9457 7.46538 19.9755 10.3913C20.2686 10.8138 20.5678 11.2637 20.8817 11.7422L19.9532 11.4367L19.3421 11.2356L18.187 10.8555C18.4893 11.242 18.8168 11.6365 19.1565 12.0457L19.3635 12.2954C20.4203 13.5713 21.568 14.9993 22.433 16.7753C22.6813 17.2852 22.9063 17.8238 23.0992 18.3957C22.7501 18.2 22.4351 17.9857 22.12 17.7714L22.1199 17.7714L22.1199 17.7714C21.965 17.666 21.8101 17.5607 21.6511 17.4575C21.5709 17.4054 21.4897 17.354 21.407 17.3033C20.997 17.0524 20.5485 16.8218 19.9982 16.6452C20.2344 17.1148 20.4382 17.5625 20.6109 17.9966C20.8411 18.5754 21.016 19.1302 21.1383 19.6809H20.111C19.9115 18.8812 19.5841 18.0474 19.1049 17.0946L18.0336 14.9648L20.3036 15.693C20.4734 15.7475 20.6346 15.8063 20.7883 15.8685C20.0675 14.7162 19.237 13.7136 18.4315 12.7413L18.4315 12.7412C18.0789 12.3156 17.7311 11.8957 17.3993 11.4716L15.3687 8.87535L18.3447 9.85462C17.8031 9.16049 17.2712 8.5865 16.6787 8.10394C15.5357 7.17306 14.1014 6.53414 11.7848 6.16852L11.0495 6.05247L10.9497 5.31471C10.9294 5.16462 10.9071 5.02184 10.8828 4.8855L10.8669 4.91982L10.3673 5.99861L9.39005 5.32158C9.31511 5.26966 9.24475 5.21528 9.17861 5.15864C9.10207 5.49207 9.034 5.85486 8.96932 6.25196L8.89584 6.70307L8.50664 6.94272C8.17489 7.14699 7.74389 7.49898 7.36013 7.88046C6.94939 8.28877 6.72239 8.60307 6.67364 8.71488L6.61146 8.85748L6.5089 8.97445C5.68635 9.91261 4.85075 10.7045 4.15249 11.3662C3.90933 11.5966 3.68282 11.8113 3.47932 12.0109C2.6213 12.8522 2.2462 13.3618 2.15707 13.794L2.14766 13.8397L2.13404 13.8842C2.03735 14.2007 2.10731 14.5041 2.2982 14.7962C2.47366 15.0646 2.69805 15.2378 2.81977 15.308C2.88192 15.3076 3.0105 15.2877 3.22866 15.1737C3.53969 15.0112 3.94713 14.6993 4.44533 14.1795L4.6911 13.923L5.04354 13.8791C6.51506 13.6956 7.9562 13.3637 9.57568 12.5521L9.95243 12.3633L10.3507 12.5011C10.8642 12.6787 11.1458 13.1033 11.2934 13.3942C11.4556 13.7138 11.5651 14.0881 11.6427 14.4597C11.7993 15.2103 11.8634 16.1395 11.856 17.0646C11.8491 17.9459 11.7769 18.8654 11.6402 19.6809H10.6249Z" fill="white"/>
<path d="M10.0237 13.4461L10.1055 13.2098L10.0059 13.1754L9.91171 13.2226L10.0237 13.4461ZM10.6249 19.6809L10.379 19.6358L10.325 19.9309H10.6249V19.6809ZM5.16729 14.8714L5.13635 14.6233L5.04824 14.6343L4.9868 14.6984L5.16729 14.8714ZM2.51824 16.2703L2.42806 16.5034L2.44085 16.5084L2.45411 16.5119L2.51824 16.2703ZM1.17768 13.5921L1.41677 13.6651L1.42018 13.654L1.42253 13.6425L1.17768 13.5921ZM3.49316 10.6129L3.66513 10.7943L3.49316 10.6129ZM5.75699 8.31519L5.94497 8.48001L5.97061 8.45076L5.98615 8.41511L5.75699 8.31519ZM7.98233 6.09119L8.11341 6.30407L8.21071 6.24416L8.22908 6.13138L7.98233 6.09119ZM8.43043 4.1024L8.66832 4.17928L8.43043 4.1024ZM9.06329 2.72094L9.30754 2.66763L9.17824 2.07514L8.85243 2.58663L9.06329 2.72094ZM9.28671 3.54532L9.52214 3.46124V3.46124L9.28671 3.54532ZM9.51631 4.03362L9.72798 3.90059L9.72798 3.90059L9.51631 4.03362ZM9.95952 4.49957L9.81715 4.70507L10.0615 4.87433L10.1864 4.60463L9.95952 4.49957ZM10.3724 3.51653L10.6067 3.60366L10.6067 3.60366L10.3724 3.51653ZM10.441 3.32664L10.2051 3.24391V3.24391L10.441 3.32664ZM10.8264 1.79492L11.0495 1.6822L10.6915 0.973618L10.5789 1.75944L10.8264 1.79492ZM11.5017 3.30477L11.266 3.38797V3.38798L11.5017 3.30477ZM11.9407 5.18075L11.693 5.21424L11.7179 5.39868L11.9017 5.42769L11.9407 5.18075ZM19.9755 10.3913L19.7701 10.5338L19.9755 10.3913ZM20.8817 11.7422L20.8035 11.9797L21.483 12.2033L21.0907 11.6051L20.8817 11.7422ZM19.9532 11.4367L19.875 11.6741L19.9532 11.4367ZM19.3421 11.2356L19.264 11.4731L19.3421 11.2356ZM18.187 10.8555L18.2651 10.618L17.4824 10.3605L17.9901 11.0095L18.187 10.8555ZM19.1565 12.0457L19.3489 11.8861L19.3488 11.8861L19.1565 12.0457ZM19.3635 12.2954L19.5561 12.1359L19.556 12.1358L19.3635 12.2954ZM22.433 16.7753L22.6577 16.6659L22.433 16.7753ZM23.0992 18.3957L22.9769 18.6138L23.5437 18.9316L23.3361 18.3158L23.0992 18.3957ZM22.12 17.7714L21.9698 17.9716L21.9794 17.9781L22.12 17.7714ZM22.1199 17.7714L22.2699 17.5714L22.2627 17.566L22.2551 17.5611L22.1199 17.7714ZM22.1199 17.7714L21.9793 17.9782L21.9847 17.9817L22.1199 17.7714ZM21.6511 17.4575L21.7872 17.2478L21.6511 17.4575ZM21.407 17.3033L21.5375 17.0901V17.0901L21.407 17.3033ZM19.9982 16.6452L20.0746 16.4072L19.507 16.2251L19.7749 16.7576L19.9982 16.6452ZM20.6109 17.9966L20.3786 18.0889L20.6109 17.9966ZM21.1383 19.6809V19.9309H21.45L21.3824 19.6266L21.1383 19.6809ZM20.111 19.6809L19.8684 19.7414L19.9157 19.9309H20.111V19.6809ZM19.1049 17.0946L19.3282 16.9823L19.1049 17.0946ZM18.0336 14.9648L18.1099 14.7268L17.5424 14.5447L17.8102 15.0772L18.0336 14.9648ZM20.3036 15.693L20.2273 15.9311L20.3036 15.693ZM20.7883 15.8685L20.6945 16.1002L21.4089 16.3893L21.0002 15.7359L20.7883 15.8685ZM18.4315 12.7413L18.624 12.5818L18.6166 12.5728L18.6083 12.5645L18.4315 12.7413ZM18.4315 12.7412L18.239 12.9007L18.2464 12.9097L18.2547 12.918L18.4315 12.7412ZM17.3993 11.4716L17.5962 11.3175L17.3993 11.4716ZM15.3687 8.87535L15.4468 8.63787L14.6641 8.38031L15.1718 9.02937L15.3687 8.87535ZM18.3447 9.85462L18.2665 10.0921L19.0476 10.3491L18.5418 9.70084L18.3447 9.85462ZM16.6787 8.10394L16.5208 8.29778V8.29778L16.6787 8.10394ZM11.7848 6.16852L11.8238 5.92158L11.7848 6.16852ZM11.0495 6.05247L10.8017 6.08596L10.8266 6.2704L11.0105 6.29941L11.0495 6.05247ZM10.9497 5.31471L11.1975 5.28122V5.28122L10.9497 5.31471ZM10.8828 4.8855L11.1289 4.84166L10.9894 4.05843L10.6558 4.78068L10.8828 4.8855ZM10.8669 4.91982L11.0938 5.02488L11.0939 5.02464L10.8669 4.91982ZM10.3673 5.99861L10.2249 6.20411L10.4693 6.37337L10.5942 6.10367L10.3673 5.99861ZM9.39005 5.32158L9.24768 5.52708L9.24768 5.52708L9.39005 5.32158ZM9.17861 5.15864L9.34122 4.96875L9.02738 4.7L8.93494 5.10271L9.17861 5.15864ZM8.96932 6.25196L9.21607 6.29215L8.96932 6.25196ZM8.89584 6.70307L9.02692 6.91596L9.12422 6.85605L9.14259 6.74327L8.89584 6.70307ZM8.50664 6.94272L8.37557 6.72984L8.50664 6.94272ZM7.36013 7.88046L7.18388 7.70316L7.36013 7.88046ZM6.67364 8.71488L6.9028 8.8148V8.8148L6.67364 8.71488ZM6.61146 8.85748L6.79944 9.02229L6.82508 8.99305L6.84062 8.9574L6.61146 8.85748ZM6.5089 8.97445L6.32092 8.80964L6.5089 8.97445ZM4.15249 11.3662L4.32445 11.5477L4.32445 11.5477L4.15249 11.3662ZM3.47932 12.0109L3.65436 12.1894H3.65436L3.47932 12.0109ZM2.15707 13.794L1.91223 13.7435L1.91223 13.7435L2.15707 13.794ZM2.14766 13.8397L2.38675 13.9127L2.39016 13.9016L2.39251 13.8901L2.14766 13.8397ZM2.13404 13.8842L1.89495 13.8112L1.89495 13.8112L2.13404 13.8842ZM2.2982 14.7962L2.08894 14.9329H2.08894L2.2982 14.7962ZM2.81977 15.308L2.69485 15.5245L2.75359 15.5584L2.82139 15.558L2.81977 15.308ZM3.22866 15.1737L3.34445 15.3953L3.22866 15.1737ZM4.44533 14.1795L4.26484 14.0065L4.44533 14.1795ZM4.6911 13.923L4.66016 13.675L4.57205 13.686L4.51061 13.7501L4.6911 13.923ZM5.04354 13.8791L5.07448 14.1272L5.04354 13.8791ZM9.57568 12.5521L9.68769 12.7756H9.68769L9.57568 12.5521ZM9.95243 12.3633L10.0342 12.127L9.93461 12.0926L9.84042 12.1398L9.95243 12.3633ZM10.3507 12.5011L10.4324 12.2648H10.4324L10.3507 12.5011ZM11.2934 13.3942L11.0705 13.5073V13.5073L11.2934 13.3942ZM11.6427 14.4597L11.8874 14.4086L11.8874 14.4086L11.6427 14.4597ZM11.856 17.0646L11.6061 17.0626L11.856 17.0646ZM11.6402 19.6809V19.9309H11.8517L11.8867 19.7222L11.6402 19.6809ZM9.94199 13.6824C9.98087 13.6958 10.0406 13.7367 10.1115 13.8433C10.1814 13.9484 10.2492 14.0984 10.3108 14.2933C10.4339 14.6827 10.5199 15.2109 10.5663 15.815C10.6589 17.0216 10.5902 18.4826 10.379 19.6358L10.8709 19.7259C11.0902 18.5278 11.1605 17.0236 11.0648 15.7767C11.017 15.154 10.9269 14.5834 10.7876 14.1426C10.718 13.9225 10.633 13.7246 10.5279 13.5665C10.4238 13.41 10.2864 13.2725 10.1055 13.2098L9.94199 13.6824ZM5.19822 15.1195C6.76887 14.9236 8.3561 14.5615 10.1357 13.6696L9.91171 13.2226C8.19614 14.0824 6.66735 14.4324 5.13635 14.6233L5.19822 15.1195ZM2.45411 16.5119C2.87297 16.623 3.33155 16.5304 3.80758 16.2816C4.28355 16.0329 4.79833 15.6177 5.34778 15.0444L4.9868 14.6984C4.45785 15.2503 3.98601 15.6242 3.57601 15.8385C3.16608 16.0527 2.83933 16.0968 2.58237 16.0286L2.45411 16.5119ZM0.938588 13.519C0.70696 14.2772 0.913964 14.9631 1.2519 15.4801C1.58498 15.9897 2.06165 16.3617 2.42806 16.5034L2.60842 16.0371C2.35265 15.9382 1.9544 15.641 1.67042 15.2065C1.3913 14.7795 1.23912 14.2466 1.41677 13.6651L0.938588 13.519ZM3.32119 10.4314C2.72712 10.9944 2.18697 11.5059 1.7715 12.0004C1.35569 12.4953 1.04553 12.995 0.932831 13.5416L1.42253 13.6425C1.51095 13.2137 1.7613 12.7898 2.15433 12.322C2.54771 11.8538 3.06474 11.3633 3.66513 10.7943L3.32119 10.4314ZM5.56901 8.15038C4.78844 9.04066 4.01302 9.77573 3.32119 10.4314L3.66513 10.7943C4.35599 10.1396 5.14721 9.38988 5.94497 8.48001L5.56901 8.15038ZM7.85125 5.87831C7.41369 6.14773 6.9075 6.56787 6.47888 6.99395C6.05701 7.41333 5.67859 7.86951 5.52783 8.21527L5.98615 8.41511C6.09611 8.16293 6.41396 7.7635 6.83138 7.34856C7.24205 6.94032 7.71817 6.54743 8.11341 6.30407L7.85125 5.87831ZM8.19255 4.02553C7.99302 4.64296 7.85498 5.318 7.73558 6.051L8.22908 6.13138C8.34688 5.40818 8.48014 4.76162 8.66832 4.17928L8.19255 4.02553ZM8.85243 2.58663C8.57093 3.02855 8.35978 3.50803 8.19255 4.02553L8.66832 4.17928C8.82546 3.69302 9.02014 3.25401 9.27414 2.85525L8.85243 2.58663ZM9.52214 3.46124C9.44393 3.24223 9.37617 2.9821 9.30754 2.66763L8.81904 2.77424C8.88946 3.09694 8.96254 3.38095 9.05127 3.62941L9.52214 3.46124ZM9.72798 3.90059C9.65122 3.77845 9.58402 3.63448 9.52214 3.46124L9.05127 3.62941C9.12195 3.8273 9.20376 4.00613 9.30465 4.16665L9.72798 3.90059ZM10.1019 4.29407C9.94838 4.18772 9.82857 4.06064 9.72798 3.90059L9.30464 4.16665C9.43968 4.38151 9.60587 4.5587 9.81715 4.70507L10.1019 4.29407ZM10.1381 3.42939C10.0245 3.73474 9.89004 4.05472 9.73267 4.39451L10.1864 4.60463C10.3483 4.2549 10.488 3.92288 10.6067 3.60366L10.1381 3.42939ZM10.2051 3.24391C10.1836 3.30515 10.1613 3.36696 10.1381 3.42939L10.6067 3.60366C10.631 3.53838 10.6544 3.47363 10.6769 3.40937L10.2051 3.24391ZM10.5789 1.75944C10.5113 2.23095 10.3901 2.71645 10.2051 3.24391L10.6769 3.40937C10.8712 2.85537 11.001 2.33815 11.0738 1.8304L10.5789 1.75944ZM11.7375 3.22156C11.529 2.63079 11.2857 2.1497 11.0495 1.6822L10.6032 1.90765C10.8402 2.37671 11.0695 2.83134 11.266 3.38797L11.7375 3.22156ZM12.1885 5.14726C12.0833 4.36923 11.925 3.75278 11.7375 3.22156L11.266 3.38798C11.4417 3.88596 11.5922 4.46903 11.693 5.21424L12.1885 5.14726ZM20.1809 10.2488C19.1606 8.77796 18.1987 7.61467 16.9406 6.73641C15.6798 5.85629 14.1398 5.27473 11.9797 4.93381L11.9017 5.42769C14.0097 5.76039 15.4722 6.32115 16.6544 7.1464C17.8392 7.97352 18.7607 9.07868 19.7701 10.5338L20.1809 10.2488ZM21.0907 11.6051C20.7764 11.1259 20.4758 10.6739 20.1809 10.2488L19.7701 10.5338C20.0614 10.9536 20.3592 11.4015 20.6726 11.8793L21.0907 11.6051ZM19.875 11.6741L20.8035 11.9797L20.9598 11.5047L20.0313 11.1992L19.875 11.6741ZM19.264 11.4731L19.875 11.6741L20.0313 11.1992L19.4203 10.9981L19.264 11.4731ZM18.1089 11.093L19.264 11.4731L19.4203 10.9981L18.2651 10.618L18.1089 11.093ZM19.3488 11.8861C19.0087 11.4762 18.6836 11.0846 18.3839 10.7015L17.9901 11.0095C18.295 11.3994 18.6249 11.7968 18.9641 12.2054L19.3488 11.8861ZM19.556 12.1358L19.3489 11.8861L18.964 12.2053L19.1711 12.455L19.556 12.1358ZM22.6577 16.6659C21.7785 14.8604 20.6134 13.4125 19.5561 12.1359L19.171 12.4549C20.2273 13.7302 21.3576 15.1381 22.2082 16.8848L22.6577 16.6659ZM23.3361 18.3158C23.1396 17.7331 22.9104 17.1846 22.6577 16.6659L22.2082 16.8848C22.4522 17.3858 22.6731 17.9145 22.8623 18.4756L23.3361 18.3158ZM21.9794 17.9781C22.2933 18.1917 22.6169 18.4119 22.9769 18.6138L23.2214 18.1776C22.8832 17.988 22.5769 17.7798 22.2606 17.5647L21.9794 17.9781ZM21.9699 17.9714L21.97 17.9714L22.27 17.5714L22.2699 17.5714L21.9699 17.9714ZM21.9847 17.9817L21.9848 17.9817L22.2551 17.5611L22.2551 17.5611L21.9847 17.9817ZM21.515 17.6672C21.6714 17.7687 21.8241 17.8725 21.9793 17.9781L22.2605 17.5647C22.106 17.4596 21.9488 17.3527 21.7872 17.2478L21.515 17.6672ZM21.2765 17.5166C21.357 17.5659 21.4363 17.6161 21.515 17.6672L21.7872 17.2478C21.7055 17.1948 21.6225 17.1421 21.5375 17.0901L21.2765 17.5166ZM19.9218 16.8833C20.4482 17.0521 20.8784 17.273 21.2765 17.5166L21.5375 17.0901C21.1155 16.8319 20.6488 16.5914 20.0746 16.4072L19.9218 16.8833ZM20.8432 17.9042C20.6674 17.4622 20.4604 17.0079 20.2215 16.5329L19.7749 16.7576C20.0084 17.2218 20.2091 17.6628 20.3786 18.0889L20.8432 17.9042ZM21.3824 19.6266C21.2568 19.0613 21.0777 18.4937 20.8432 17.9042L20.3786 18.0889C20.6046 18.6572 20.7752 19.1992 20.8943 19.7351L21.3824 19.6266ZM20.111 19.9309H21.1383V19.4309H20.111V19.9309ZM20.3535 19.6204C20.1484 18.7978 19.8131 17.9463 19.3282 16.9823L18.8815 17.2069C19.3552 18.1486 19.6747 18.9646 19.8684 19.7414L20.3535 19.6204ZM19.3282 16.9823L18.2569 14.8525L17.8102 15.0772L18.8815 17.2069L19.3282 16.9823ZM17.9572 15.2029L20.2273 15.9311L20.38 15.455L18.1099 14.7268L17.9572 15.2029ZM20.2273 15.9311C20.391 15.9836 20.5464 16.0403 20.6945 16.1002L20.882 15.6367C20.7228 15.5723 20.5558 15.5114 20.38 15.455L20.2273 15.9311ZM21.0002 15.7359C20.2693 14.5673 19.4282 13.5525 18.624 12.5818L18.239 12.9007C19.0458 13.8748 19.8657 14.865 20.5763 16.001L21.0002 15.7359ZM18.6083 12.5645L18.6083 12.5645L18.2547 12.918L18.2547 12.918L18.6083 12.5645ZM18.624 12.5818C18.271 12.1556 17.9254 11.7384 17.5962 11.3175L17.2024 11.6256C17.5367 12.053 17.8868 12.4755 18.239 12.9007L18.624 12.5818ZM17.5962 11.3175L15.5656 8.72133L15.1718 9.02937L17.2024 11.6256L17.5962 11.3175ZM15.2905 9.11282L18.2665 10.0921L18.4228 9.61715L15.4468 8.63787L15.2905 9.11282ZM18.5418 9.70084C17.9926 8.99693 17.4478 8.40793 16.8366 7.91009L16.5208 8.29778C17.0946 8.76507 17.6136 9.32405 18.1476 10.0084L18.5418 9.70084ZM16.8366 7.91009C15.6509 6.94445 14.1718 6.29216 11.8238 5.92158L11.7458 6.41547C14.031 6.77612 15.4206 7.40168 16.5208 8.29778L16.8366 7.91009ZM11.8238 5.92158L11.0884 5.80552L11.0105 6.29941L11.7458 6.41547L11.8238 5.92158ZM11.2972 6.01898L11.1975 5.28122L10.702 5.3482L10.8017 6.08596L11.2972 6.01898ZM11.1975 5.28122C11.1767 5.12782 11.1538 4.98158 11.1289 4.84166L10.6367 4.92934C10.6603 5.0621 10.6821 5.20143 10.702 5.34821L11.1975 5.28122ZM10.6558 4.78068L10.64 4.81499L11.0939 5.02464L11.1097 4.99033L10.6558 4.78068ZM10.6401 4.81476L10.1405 5.89355L10.5942 6.10367L11.0938 5.02488L10.6401 4.81476ZM10.5097 5.79311L9.53241 5.11608L9.24768 5.52708L10.2249 6.20411L10.5097 5.79311ZM9.53242 5.11608C9.46445 5.06899 9.40085 5.01982 9.34122 4.96875L9.016 5.34853C9.08864 5.41074 9.16576 5.47033 9.24768 5.52708L9.53242 5.11608ZM8.93494 5.10271C8.85685 5.44294 8.78781 5.81129 8.72258 6.21177L9.21607 6.29215C9.2802 5.89843 9.3473 5.5412 9.42227 5.21457L8.93494 5.10271ZM8.72258 6.21177L8.6491 6.66288L9.14259 6.74327L9.21607 6.29215L8.72258 6.21177ZM8.76477 6.49019L8.37557 6.72984L8.63772 7.1556L9.02692 6.91596L8.76477 6.49019ZM8.37557 6.72984C8.02265 6.94714 7.5766 7.31277 7.18388 7.70316L7.53638 8.05776C7.91117 7.6852 8.32714 7.34684 8.63772 7.1556L8.37557 6.72984ZM7.18388 7.70316C6.97234 7.91345 6.8063 8.10131 6.68547 8.25325C6.56987 8.39862 6.48289 8.52687 6.44448 8.61496L6.9028 8.8148C6.91315 8.79108 6.96404 8.70627 7.07681 8.56446C7.18436 8.42922 7.33719 8.25578 7.53638 8.05776L7.18388 7.70316ZM6.44448 8.61496L6.3823 8.75756L6.84062 8.9574L6.9028 8.8148L6.44448 8.61496ZM6.42348 8.69266L6.32092 8.80964L6.69688 9.13927L6.79944 9.02229L6.42348 8.69266ZM6.32092 8.80964C5.50698 9.73798 4.67932 10.5225 3.98052 11.1847L4.32445 11.5477C5.02218 10.8865 5.86572 10.0872 6.69688 9.13927L6.32092 8.80964ZM3.98052 11.1847C3.73775 11.4148 3.5096 11.631 3.30428 11.8324L3.65436 12.1894C3.85604 11.9916 4.0809 11.7785 4.32445 11.5477L3.98052 11.1847ZM3.30428 11.8324C2.87181 12.2564 2.55268 12.6049 2.32893 12.9071C2.10523 13.2093 1.9669 13.4784 1.91223 13.7435L2.40192 13.8445C2.43637 13.6775 2.53015 13.4756 2.73079 13.2046C2.93138 12.9337 3.22881 12.6066 3.65436 12.1894L3.30428 11.8324ZM1.91223 13.7435L1.90281 13.7892L2.39251 13.8901L2.40192 13.8445L1.91223 13.7435ZM1.90857 13.7666L1.89495 13.8112L2.37314 13.9573L2.38675 13.9127L1.90857 13.7666ZM1.89495 13.8112C1.7716 14.215 1.86788 14.5948 2.08894 14.9329L2.50747 14.6594C2.34674 14.4135 2.3031 14.1865 2.37314 13.9573L1.89495 13.8112ZM2.08894 14.9329C2.28854 15.2383 2.54365 15.4373 2.69485 15.5245L2.94468 15.0914C2.85246 15.0382 2.65879 14.8909 2.50747 14.6594L2.08894 14.9329ZM2.82139 15.558C2.93451 15.5572 3.10251 15.5217 3.34445 15.3953L3.11288 14.9522C2.9185 15.0537 2.82933 15.0579 2.81814 15.058L2.82139 15.558ZM3.34445 15.3953C3.68848 15.2155 4.11739 14.8829 4.62582 14.3525L4.26484 14.0065C3.77687 14.5156 3.39089 14.8069 3.11288 14.9522L3.34445 15.3953ZM4.62582 14.3525L4.87158 14.096L4.51061 13.7501L4.26484 14.0065L4.62582 14.3525ZM4.72203 14.1711L5.07448 14.1272L5.01261 13.631L4.66016 13.675L4.72203 14.1711ZM5.07448 14.1272C6.56582 13.9412 8.03618 13.6033 9.68769 12.7756L9.46367 12.3286C7.87622 13.1242 6.46429 13.45 5.01261 13.631L5.07448 14.1272ZM9.68769 12.7756L10.0644 12.5868L9.84042 12.1398L9.46367 12.3286L9.68769 12.7756ZM9.87069 12.5995L10.2689 12.7373L10.4324 12.2648L10.0342 12.127L9.87069 12.5995ZM10.2689 12.7373C10.6902 12.8831 10.933 13.2362 11.0705 13.5073L11.5164 13.2811C11.3587 12.9703 11.0381 12.4744 10.4324 12.2648L10.2689 12.7373ZM11.0705 13.5073C11.2188 13.7995 11.3227 14.1501 11.3979 14.5107L11.8874 14.4086C11.8076 14.0261 11.6925 13.6281 11.5164 13.2811L11.0705 13.5073ZM11.3979 14.5107C11.5497 15.2378 11.6133 16.1478 11.6061 17.0626L12.106 17.0666C12.1134 16.1312 12.0489 15.1828 11.8874 14.4086L11.3979 14.5107ZM11.6061 17.0626C11.5992 17.9328 11.5278 18.8389 11.3936 19.6395L11.8867 19.7222C12.0259 18.8919 12.099 17.9591 12.106 17.0666L11.6061 17.0626ZM10.6249 19.9309H11.6402V19.4309H10.6249V19.9309Z" fill="white"/>
</svg>
