<svg width="20" height="21" viewBox="0 0 20 21" fill="none" xmlns="http://www.w3.org/2000/svg">
<path d="M19.2393 9.19523L19.2393 9.19367C19.1743 7.81611 18.893 6.46188 18.4396 5.17382C18.2232 4.52888 17.9429 3.90735 17.6686 3.29909L17.666 3.29346L17.6661 3.29345L17.6644 3.28999C17.5113 2.96375 17.3369 2.66048 17.1684 2.36732L17.1677 2.36605C17.015 2.08451 16.814 1.75592 16.5635 1.4702C16.314 1.18559 16.0007 0.926422 15.6199 0.812369C15.1443 0.663841 14.5021 0.772953 14.1896 1.25303L14.1892 1.25365C13.9359 1.64527 14.0067 2.14275 14.092 2.50323L14.092 2.50324L14.0933 2.50846C14.2416 3.07943 14.5139 3.60714 14.7671 4.09795C14.8185 4.19747 14.8691 4.29547 14.9177 4.39201C15.6025 5.87872 15.9555 7.51037 15.9555 9.14207C15.9555 9.75869 15.8935 10.3779 15.7892 11.0006C15.5191 12.5067 14.9404 13.8757 13.9366 14.9957C12.9332 16.1152 11.4896 16.8759 10.0032 16.856V16.856H9.99988C8.50907 16.856 7.06478 16.1132 6.06312 14.9957C5.0577 13.8739 4.45927 12.5042 4.21091 11.0025L4.21082 11.0019C4.10633 10.3788 4.04424 9.75913 4.04424 9.14207C4.04424 7.50896 4.39787 5.87589 5.08388 4.38814L5.08389 4.38815L5.08475 4.38624C5.16207 4.21479 5.24786 4.03883 5.33546 3.85915C5.54487 3.42962 5.76464 2.97886 5.90377 2.51787L5.90596 2.51061L5.90771 2.50323C5.99418 2.13796 6.06137 1.66886 5.81471 1.26023L5.81483 1.26015L5.81019 1.25303C5.4973 0.772377 4.85391 0.66358 4.37819 0.812905L4.37818 0.812875L4.37443 0.814117C3.9955 0.939668 3.68891 1.20365 3.44327 1.48711C3.19684 1.77147 2.99609 2.09412 2.83639 2.35869L2.83634 2.35866L2.83368 2.36329C2.71624 2.56757 2.60717 2.77481 2.49711 2.98394C2.44572 3.0816 2.3941 3.17967 2.34132 3.27804L2.34125 3.27799L2.33828 3.28389C2.03478 3.88725 1.77558 4.53162 1.56011 5.17392C1.10675 6.46195 0.825446 7.81615 0.760484 9.19366H0.760479L0.760415 9.19523C0.652117 11.8433 1.3876 14.5866 3.0231 16.6891L3.02307 16.6891L3.02607 16.6928C4.72316 18.7906 7.29778 20.2282 10.0191 20.25L10.0191 20.25L10.0232 20.25C12.7217 20.2282 15.3191 18.7919 16.9544 16.6904C18.6344 14.586 19.3476 11.8415 19.2393 9.19523Z" fill="white" stroke="white" stroke-width="0.5"/>
</svg>
