<?xml version="1.0" encoding="UTF-8" standalone="no"?>
<svg
   xmlns:dc="http://purl.org/dc/elements/1.1/"
   xmlns:cc="http://creativecommons.org/ns#"
   xmlns:rdf="http://www.w3.org/1999/02/22-rdf-syntax-ns#"
   xmlns:svg="http://www.w3.org/2000/svg"
   xmlns="http://www.w3.org/2000/svg"
   xmlns:sodipodi="http://sodipodi.sourceforge.net/DTD/sodipodi-0.dtd"
   xmlns:inkscape="http://www.inkscape.org/namespaces/inkscape"
   width="23"
   height="18"
   viewBox="0 0 23 18"
   fill="none"
   version="1.1"
   id="svg82"
   sodipodi:docname="icon-menu.svg"
   inkscape:version="1.0.1 (c497b03c, 2020-09-10)">
  <metadata
     id="metadata88">
    <rdf:RDF>
      <cc:Work
         rdf:about="">
        <dc:format>image/svg+xml</dc:format>
        <dc:type
           rdf:resource="http://purl.org/dc/dcmitype/StillImage" />
      </cc:Work>
    </rdf:RDF>
  </metadata>
  <defs
     id="defs86" />
  <sodipodi:namedview
     pagecolor="#ffffff"
     bordercolor="#666666"
     borderopacity="1"
     objecttolerance="10"
     gridtolerance="10"
     guidetolerance="10"
     inkscape:pageopacity="0"
     inkscape:pageshadow="2"
     inkscape:window-width="1440"
     inkscape:window-height="900"
     id="namedview84"
     showgrid="false"
     inkscape:zoom="31.722222"
     inkscape:cx="11.5"
     inkscape:cy="9"
     inkscape:window-x="0"
     inkscape:window-y="0"
     inkscape:window-maximized="0"
     inkscape:current-layer="svg82" />
  <path
     id="rect76"
     style="fill:#efefef"
     d="m 1,8 h 21 c 0.554,0 1,0.446 1,1 0,0.554 -0.446,1 -1,1 H 1 C 0.446,10 0,9.554 0,9 0,8.446 0.446,8 1,8 Z" />
  <path
     id="rect78"
     style="fill:#efefef"
     d="m 1,16 h 21 c 0.554,0 1,0.446 1,1 0,0.554 -0.446,1 -1,1 H 1 C 0.446,18 0,17.554 0,17 0,16.446 0.446,16 1,16 Z" />
  <path
     id="rect80"
     style="fill:#efefef"
     d="m 1,0 h 21 c 0.554,0 1,0.446 1,1 0,0.554 -0.446,1 -1,1 H 1 C 0.446,2 0,1.554 0,1 0,0.446 0.446,0 1,0 Z" />
</svg>
