<svg width="11" height="14" viewBox="0 0 11 14" fill="none" xmlns="http://www.w3.org/2000/svg">
<path d="M1.63962 3.9536V5.90053H0.676798C0.587886 5.90041 0.499824 5.91826 0.417657 5.95307C0.33549 5.98788 0.260833 6.03895 0.197962 6.10337C0.135092 6.16779 0.0852445 6.24429 0.0512747 6.32848C0.017305 6.41267 -0.000119294 6.5029 6.14689e-07 6.594V13.3065C-0.000119294 13.3976 0.017305 13.4879 0.0512747 13.5721C0.0852445 13.6562 0.135092 13.7327 0.197962 13.7972C0.260833 13.8616 0.33549 13.9127 0.417657 13.9475C0.499824 13.9823 0.587886 14.0001 0.676798 14H10.3232C10.4121 14.0001 10.5002 13.9823 10.5823 13.9475C10.6645 13.9127 10.7392 13.8616 10.802 13.7972C10.8649 13.7327 10.9148 13.6562 10.9487 13.5721C10.9827 13.4879 11.0001 13.3976 11 13.3065V6.594C11.0001 6.5029 10.9827 6.41267 10.9487 6.32848C10.9148 6.24429 10.8649 6.16779 10.802 6.10337C10.7392 6.03895 10.6645 5.98788 10.5823 5.95307C10.5002 5.91826 10.4121 5.90041 10.3232 5.90053H9.35856V3.9536C9.35856 2.90504 8.95204 1.89943 8.22842 1.15798C7.50479 0.416539 6.52335 0 5.5 0C4.47664 0 3.49521 0.416539 2.77158 1.15798C2.04796 1.89943 1.64144 2.90504 1.64144 3.9536H1.63962ZM6.33347 11.4921C6.3459 11.5441 6.34676 11.5983 6.336 11.6507C6.32524 11.7031 6.30313 11.7524 6.27131 11.7949C6.23948 11.8373 6.19874 11.8719 6.15211 11.8961C6.10549 11.9203 6.05415 11.9334 6.0019 11.9345H4.99627C4.94355 11.9349 4.89146 11.9227 4.84409 11.8989C4.79673 11.8752 4.75537 11.8406 4.72325 11.7977C4.69114 11.7549 4.66914 11.705 4.65898 11.652C4.64883 11.5989 4.65079 11.5442 4.66471 11.4921L4.9817 10.2377C4.74906 10.1153 4.56337 9.91618 4.45448 9.67251C4.34559 9.42885 4.31981 9.15475 4.38131 8.89426C4.4428 8.63378 4.58798 8.40205 4.79352 8.23631C4.99906 8.07058 5.25302 7.98047 5.51457 7.98047C5.77613 7.98047 6.03008 8.07058 6.23562 8.23631C6.44116 8.40205 6.58635 8.63378 6.64784 8.89426C6.70933 9.15475 6.68356 9.42885 6.57467 9.67251C6.46578 9.91618 6.28009 10.1153 6.04745 10.2377L6.33347 11.4921ZM7.42655 3.9536V5.90053H3.57072V3.9536C3.57072 3.42932 3.77398 2.92651 4.13579 2.55579C4.4976 2.18507 4.98832 1.9768 5.5 1.9768C6.01168 1.9768 6.5024 2.18507 6.86421 2.55579C7.22602 2.92651 7.42928 3.42932 7.42928 3.9536H7.42655Z" fill="white"/>
</svg>
