<svg width="55" height="28" viewBox="0 0 55 28" fill="none" xmlns="http://www.w3.org/2000/svg">
<path d="M55 6.97335V20.542C55 21.3349 54.685 22.0954 54.1243 22.6561C53.5636 23.2169 52.8031 23.5319 52.0101 23.5319H37.3824C34.8056 26.0838 31.3256 27.5153 27.6989 27.5153C24.0723 27.5153 20.5923 26.0838 18.0154 23.5319H2.98989C2.19692 23.5319 1.43643 23.2169 0.87572 22.6561C0.315006 22.0954 0 21.3349 0 20.542L0 6.97335C0 6.18038 0.315006 5.41989 0.87572 4.85918C1.43643 4.29846 2.19692 3.98346 2.98989 3.98346H17.9979C20.5747 1.43156 24.0548 0 27.6814 0C31.308 0 34.788 1.43156 37.3649 3.98346H51.9926C52.3867 3.98114 52.7773 4.05677 53.1421 4.20599C53.5069 4.35521 53.8386 4.57508 54.1181 4.85295C54.3976 5.13081 54.6194 5.4612 54.7707 5.8251C54.9221 6.189 55 6.57923 55 6.97335Z" fill="#1656A2"/>
<path d="M16.184 8.82812L14.4287 15.4106L12.5797 8.82812H10.0755L8.19142 15.4106L6.43611 8.82812H3.04834L6.28983 18.9914H9.58398L11.3393 12.9473L13.0946 18.9914H16.3829L19.6244 8.82812H16.184Z" fill="white"/>
<path d="M27.2952 17.9034L30.6362 14.1821C32.0229 12.6433 32.6431 11.1688 32.6431 9.75283C32.6431 9.67676 32.6431 9.59485 32.6431 9.51878C32.6323 9.2686 32.599 9.0199 32.5436 8.7757C32.4311 8.28582 32.2201 7.82396 31.9234 7.41825C31.0106 6.20123 29.3431 5.62783 27.6814 5.62783C26.8779 5.58443 26.0752 5.72469 25.3341 6.03797C24.5929 6.35124 23.933 6.82929 23.4042 7.4358C23.1016 7.83372 22.8845 8.28989 22.7665 8.7757C22.7062 9.01363 22.667 9.25641 22.6495 9.50123C22.6495 9.6241 22.6495 9.74112 22.6495 9.864C22.6402 10.3997 22.739 10.9318 22.9401 11.4284C23.1411 11.9251 23.4403 12.3761 23.8197 12.7544L26.2128 11.3853C25.9155 11.0467 25.7495 10.6129 25.7447 10.1624C25.7437 9.94557 25.7693 9.72942 25.8207 9.51878C25.8931 9.2343 26.0454 8.97647 26.2596 8.7757C26.6327 8.49878 27.085 8.34927 27.5497 8.34927C28.0144 8.34927 28.4667 8.49878 28.8399 8.7757C29.0485 8.96912 29.1916 9.22271 29.2495 9.50123C29.2907 9.66968 29.3104 9.84271 29.308 10.0161C29.2794 10.8654 28.9376 11.6741 28.3484 12.2863L22.3335 19.3837V20.8581H33.0292V17.9326L27.2952 17.9034Z" fill="white"/>
<path d="M48.9909 8.82812L47.2355 15.4106L45.3866 8.82812H42.8824L41.0217 15.4106L39.2664 8.82812H35.8552L37.0254 12.4733L39.1084 18.9914H42.4026L44.1579 12.9473L45.9132 18.9914H49.1488L52.3903 8.82812H48.9909Z" fill="white"/>
<path d="M36.0485 7.55846C35.0715 6.27416 33.8115 5.23242 32.3664 4.51418C30.9214 3.79594 29.3302 3.42054 27.7165 3.41714C26.1028 3.41374 24.51 3.78245 23.062 4.4946C21.6139 5.20675 20.3495 6.24318 19.3671 7.52335L18.1969 6.61644C19.3193 5.15681 20.7627 3.97531 22.4154 3.16356C24.068 2.3518 25.8854 1.93161 27.7267 1.93557C29.5679 1.93954 31.3835 2.36754 33.0327 3.18639C34.6818 4.00525 36.1202 5.19295 37.2363 6.6574L36.0485 7.55846Z" fill="white"/>
<path d="M19.3729 19.9565C20.3541 21.2347 21.6155 22.2707 23.06 22.9848C24.5046 23.6988 26.0937 24.0719 27.705 24.0753C29.3164 24.0787 30.907 23.7123 32.3545 23.0043C33.802 22.2964 35.0678 21.2657 36.0543 19.9916L37.2245 20.8927C36.1022 22.3523 34.6587 23.5338 33.0061 24.3456C31.3534 25.1574 29.536 25.5775 27.6947 25.5736C25.8535 25.5696 24.0379 25.1416 22.3888 24.3228C20.7396 23.5039 19.3012 22.3162 18.1852 20.8518L19.3729 19.9565Z" fill="white"/>
</svg>
