<svg width="21" height="17" viewBox="0 0 21 17" fill="none" xmlns="http://www.w3.org/2000/svg">
<path d="M14.5291 14.2078V8.31785C14.5291 8.31658 14.5294 8.3154 14.5294 8.31413V0.386736C14.5294 0.173163 14.3565 0 14.1427 0H0.386736C0.172974 0 0 0.173163 0 0.386736V14.2078C0 15.7465 1.25198 16.9983 2.79062 16.9983H15.8812C15.0588 16.3445 14.5291 15.3377 14.5291 14.2078ZM2.02954 2.41625C2.02954 2.19968 2.19971 2.02952 2.41628 2.02952H6.93723C7.14995 2.02952 7.32396 2.19968 7.32396 2.41625V6.9372C7.32396 7.14993 7.14995 7.32394 6.93723 7.32394H2.41628C2.19971 7.32394 2.02954 7.14993 2.02954 6.9372V2.41625ZM12.368 14.6709H2.41484C2.20107 14.6709 2.0281 14.4977 2.0281 14.2841C2.0281 14.0706 2.20107 13.8974 2.41484 13.8974H12.368C12.5818 13.8974 12.7548 14.0706 12.7548 14.2841C12.7548 14.4977 12.5818 14.6709 12.368 14.6709ZM12.368 12.0362H2.41484C2.20107 12.0362 2.0281 11.8631 2.0281 11.6495C2.0281 11.4359 2.20107 11.2628 2.41484 11.2628H12.368C12.5818 11.2628 12.7548 11.4359 12.7548 11.6495C12.7548 11.8631 12.5818 12.0362 12.368 12.0362ZM12.368 9.40159H2.41484C2.20107 9.40159 2.0281 9.22842 2.0281 9.01485C2.0281 8.80128 2.20107 8.62811 2.41484 8.62811H12.368C12.5818 8.62811 12.7548 8.80128 12.7548 9.01485C12.7548 9.22842 12.5818 9.40159 12.368 9.40159ZM12.5935 6.35774H8.76275C8.54899 6.35774 8.37602 6.18457 8.37602 5.971C8.37602 5.75743 8.54899 5.58426 8.76275 5.58426H12.5935C12.8072 5.58426 12.9802 5.75743 12.9802 5.971C12.9802 6.18457 12.8072 6.35774 12.5935 6.35774ZM12.5935 3.76634H8.76275C8.54899 3.76634 8.37602 3.59317 8.37602 3.3796C8.37602 3.16603 8.54899 2.99286 8.76275 2.99286H12.5935C12.8072 2.99286 12.9802 3.16603 12.9802 3.3796C12.9802 3.59317 12.8072 3.76634 12.5935 3.76634Z" fill="white"/>
<path d="M20.4966 7.93115H15.6895C15.4768 7.93115 15.3027 8.10132 15.3027 8.31789V14.2079C15.3027 15.7471 16.5558 17.0001 18.095 17.0001C19.6342 17.0001 20.8833 15.7471 20.8833 14.2079V8.31789C20.8833 8.10132 20.7093 7.93115 20.4966 7.93115Z" fill="white"/>
</svg>
