<svg width="16" height="21" viewBox="0 0 16 21" fill="none" xmlns="http://www.w3.org/2000/svg">
<path fill-rule="evenodd" clip-rule="evenodd" d="M1.53436 0H14.4656C15.3102 0 16 0.680049 16 1.51767V17.6851L13.4737 20.2105L1.53436 20.2105C0.685636 20.2105 0 19.5263 0 18.6887V1.51767C0 0.680049 0.685636 0 1.53436 0ZM2.56484 16.7399L13.4898 16.7385C13.7209 16.7385 13.9079 16.553 13.9079 16.3238C13.9079 16.0947 13.7209 15.9092 13.4898 15.9092L2.56484 15.9106C2.33375 15.9106 2.14676 16.0947 2.14676 16.3238C2.14676 16.553 2.33375 16.7399 2.56484 16.7399ZM2.56484 13.6286H13.4898C13.7209 13.6286 13.9079 13.4431 13.9079 13.2139C13.9079 12.9847 13.7209 12.7992 13.4898 12.7992H2.56484C2.33375 12.7992 2.14676 12.9847 2.14676 13.2139C2.14676 13.4431 2.33375 13.6286 2.56484 13.6286ZM2.56484 10.52L13.4898 10.5186C13.7209 10.5186 13.9079 10.3331 13.9079 10.1039C13.9079 9.87475 13.7209 9.68929 13.4898 9.68929H2.56484C2.33375 9.68929 2.14676 9.87612 2.14676 10.1053C2.14676 10.3345 2.33375 10.52 2.56484 10.52ZM2.56484 7.40866H13.4898C13.7209 7.40866 13.9079 7.22319 13.9079 6.994C13.9079 6.7648 13.7209 6.57934 13.4898 6.57934H2.56484C2.33375 6.57934 2.14676 6.7648 2.14676 6.994C2.14676 7.22319 2.33375 7.40866 2.56484 7.40866ZM2.56484 4.29871H13.4898C13.7209 4.29871 13.9079 4.11324 13.9079 3.88405C13.9079 3.65485 13.7209 3.46939 13.4898 3.46939L2.56484 3.47075C2.33375 3.47075 2.14676 3.65622 2.14676 3.88541C2.14676 4.11461 2.33375 4.29871 2.56484 4.29871Z" fill="white"/>
</svg>
