<?xml version="1.0" encoding="UTF-8" standalone="no"?>
<svg
   xmlns:dc="http://purl.org/dc/elements/1.1/"
   xmlns:cc="http://creativecommons.org/ns#"
   xmlns:rdf="http://www.w3.org/1999/02/22-rdf-syntax-ns#"
   xmlns:svg="http://www.w3.org/2000/svg"
   xmlns="http://www.w3.org/2000/svg"
   xmlns:sodipodi="http://sodipodi.sourceforge.net/DTD/sodipodi-0.dtd"
   xmlns:inkscape="http://www.inkscape.org/namespaces/inkscape"
   width="17"
   height="24"
   viewBox="0 0 17 24"
   fill="none"
   version="1.1"
   id="svg16"
   sodipodi:docname="result.svg"
   inkscape:version="1.0.1 (c497b03c, 2020-09-10)">
  <metadata
     id="metadata22">
    <rdf:RDF>
      <cc:Work
         rdf:about="">
        <dc:format>image/svg+xml</dc:format>
        <dc:type
           rdf:resource="http://purl.org/dc/dcmitype/StillImage" />
      </cc:Work>
    </rdf:RDF>
  </metadata>
  <defs
     id="defs20" />
  <sodipodi:namedview
     pagecolor="#ffffff"
     bordercolor="#666666"
     borderopacity="1"
     objecttolerance="10"
     gridtolerance="10"
     guidetolerance="10"
     inkscape:pageopacity="0"
     inkscape:pageshadow="2"
     inkscape:window-width="705"
     inkscape:window-height="480"
     id="namedview18"
     showgrid="false"
     inkscape:zoom="24.916667"
     inkscape:cx="8.5"
     inkscape:cy="12"
     inkscape:window-x="0"
     inkscape:window-y="23"
     inkscape:window-maximized="0"
     inkscape:current-layer="svg16" />
  <path
     fill-rule="evenodd"
     clip-rule="evenodd"
     d="M8.5 17.6665C13.1944 17.6665 17 13.8609 17 9.1665C17 4.47208 13.1944 0.666504 8.5 0.666504C3.80558 0.666504 0 4.47208 0 9.1665C0 13.8609 3.80558 17.6665 8.5 17.6665ZM10.345 7.12324C10.1284 7.12324 9.93643 6.98376 9.86949 6.77774L8.97299 4.0186C8.82332 3.55794 8.17161 3.55794 8.02194 4.0186L7.12543 6.77774C7.0585 6.98376 6.86652 7.12324 6.64991 7.12324L3.74876 7.12324C3.2644 7.12324 3.06302 7.74304 3.45487 8.02774L5.80194 9.73299C5.97719 9.86031 6.05052 10.086 5.98358 10.292L5.08708 13.0512C4.9374 13.5118 5.46464 13.8949 5.8565 13.6102L8.20357 11.9049C8.37881 11.7776 8.61611 11.7776 8.79136 11.9049L11.1384 13.6102C11.5303 13.8949 12.0575 13.5118 11.9078 13.0512L11.0113 10.292C10.9444 10.086 11.0177 9.86031 11.193 9.73299L13.5401 8.02774C13.9319 7.74304 13.7305 7.12324 13.2462 7.12324L10.345 7.12324Z"
     fill="white"
     id="path10" />
  <path
     id="rect12"
     style="fill:#ffffff"
     d="m 3.7784241,21.444799 h 9.4444119 c 0.523222,0 0.944444,0.421222 0.944444,0.944444 v 2e-6 c 0,0.523222 -0.421222,0.944444 -0.944444,0.944444 H 3.7784241 c -0.523222,0 -0.944444,-0.421222 -0.944444,-0.944444 v -2e-6 c 0,-0.523222 0.421222,-0.944444 0.944444,-0.944444 z" />
  <path
     id="rect14"
     transform="rotate(-90 7.55469 23.333)"
     style="fill:#ffffff"
     d="m 8.4991339,23.333 h 4.7222221 c 0.523222,0 0.944444,0.421222 0.944444,0.944444 v 2e-6 c 0,0.523222 -0.421222,0.944444 -0.944444,0.944444 H 8.4991339 c -0.523222,0 -0.944444,-0.421222 -0.944444,-0.944444 v -2e-6 c 0,-0.523222 0.421222,-0.944444 0.944444,-0.944444 z" />
</svg>
