<svg width="43" height="32" viewBox="0 0 43 32" fill="none" xmlns="http://www.w3.org/2000/svg">
<path d="M6.09888 5.58165C6.09888 5.58165 8.25836 6.96266 8.89574 13.4776C8.89574 13.4776 8.89574 19.8515 8.89574 30.546H26.0172V13.4062C26.0172 13.4062 26.7791 7.03237 28.8854 5.58165L21.6617 2.71341V1.01372C21.6617 1.01372 17.459 0.658507 17.459 3.56326C17.459 3.56326 17.8905 1.01372 13.3226 1.01372V2.71341L6.09888 5.58165Z" fill="#33BDF2"/>
<path d="M6.09888 5.58159C6.09888 5.58159 8.25836 6.9626 8.89574 13.4775C8.89574 13.4775 8.89574 19.8514 8.89574 30.5459H26.0172V13.4062C26.0172 13.4062 26.7791 7.03231 28.8854 5.58159L21.6617 2.71335V1.01365C21.6617 1.01365 17.459 0.658444 17.459 3.5632C17.459 3.5632 17.8905 1.01365 13.3226 1.01365V2.71335L6.09888 5.58159Z" stroke="#231F20"/>
<path d="M6.09909 30.4933C6.41779 29.8559 8.96733 16.1521 8.96733 16.1521C9.17979 11.2654 7.69256 6.27258 6.20532 5.84766L1 29.6434L6.09909 30.4933Z" fill="white"/>
<path d="M6.09909 30.4922C6.41779 29.8548 8.96733 16.151 8.96733 16.151C9.17979 11.2644 7.69256 6.2715 6.20532 5.84657L1 29.6423L6.09909 30.4922Z" stroke="#231F20"/>
<path d="M34.038 29.6432L29.0451 5.74121C27.5579 6.16614 25.9644 11.2652 26.1769 16.1519C26.1769 16.1519 28.6202 29.8557 28.9389 30.4931L34.038 29.6432Z" fill="white"/>
<path d="M34.038 29.6423L29.0451 5.74034C27.5579 6.16527 25.9644 11.2644 26.1769 16.151C26.1769 16.151 28.6202 29.8548 28.9389 30.4922L34.038 29.6423Z" stroke="#231F20"/>
<path d="M33.9185 12.1812C35.6049 18.7958 43.4212 16.7724 41.7729 10.3139L33.9185 12.1812Z" fill="#33BDF2"/>
<path d="M33.9185 12.1812C35.6049 18.7958 43.4212 16.7724 41.7729 10.3139" stroke="#231F20"/>
<path d="M13.2977 30.1859V3.60156L9.99951 4.63068V30.1859H13.2977Z" fill="#ED1639"/>
<path d="M21.8374 30.1859V3.60156L25.1355 4.63068V30.1859H21.8374Z" fill="#ED1639"/>
<path d="M38.489 13.7196C40.851 13.1171 42.2768 10.7136 41.6743 8.35164C41.0717 5.98966 38.6683 4.56384 36.3063 5.16637C33.946 5.7689 32.5201 8.17238 33.1227 10.5344C33.7235 12.8963 36.127 14.3222 38.489 13.7196Z" fill="#33BDF2"/>
<path d="M38.489 13.7194C40.851 13.1168 42.2768 10.7134 41.6743 8.35138C41.0717 5.9894 38.6683 4.56358 36.3063 5.16611C33.946 5.76864 32.5201 8.17212 33.1227 10.5341C33.7235 12.8961 36.127 14.3219 38.489 13.7194Z" stroke="#231F20"/>
<path d="M7.92834 21.747L8.73504 18.0422L3.75048 16.8936L2.85083 20.5187L7.92834 21.747Z" fill="#ED1639"/>
<path d="M27.2276 21.6791L26.5371 18.0456L31.3557 17.0381L32.1325 20.6997L27.2276 21.6791Z" fill="#ED1639"/>
<path d="M40.0999 6.34018L37.3612 9.56031L33.6763 7.54856C34.9494 4.86623 38.6525 4.75335 40.0999 6.34018Z" fill="#ED1639"/>
<path d="M34.5725 12.6512L37.3246 9.57715L41.1207 11.6586C39.5704 14.6098 35.4655 14.077 34.5725 12.6512Z" fill="#ED1639"/>
</svg>
