<svg width="19" height="14" viewBox="0 0 19 14" fill="none" xmlns="http://www.w3.org/2000/svg">
    <path d="M18 12L17.6202 13.4833C17.5425 13.7858 17.2436 14 16.899 14H2.10097C1.75643 14 1.45751 13.7858 1.37982 13.4833L1 12H18Z" fill="white"/>
    <path d="M18.9827 4.56495L17.6086 11H1.39149L0.0174032 4.56495C-0.043215 4.2809 0.0574382 3.98512 0.273899 3.81132C0.490813 3.63727 0.781915 3.61943 1.01534 3.76341L5.21518 6.35699L8.93528 0.326738C9.05629 0.130447 9.25692 0.00920206 9.47496 0.000646435C9.69504 -0.00937587 9.90178 0.0976916 10.0357 0.283471L14.3984 6.34525L17.945 3.79005C18.1766 3.62432 18.4783 3.62603 18.707 3.7969C18.9359 3.96728 19.0449 4.2721 18.9827 4.56495Z" fill="white"/>
</svg>
